<svg width="100" height="45" viewBox="0 0 100 45" fill="none" xmlns="http://www.w3.org/2000/svg">
<path d="M26.5282 10.3697C27.4168 9.25136 28.0197 7.74977 27.8607 6.21533C26.56 6.28041 24.9727 7.07882 24.0538 8.19802C23.2287 9.15645 22.4984 10.7209 22.6887 12.191C24.1489 12.3185 25.6076 11.4566 26.5282 10.3697Z" fill="#000008"/>
<path d="M27.8442 12.4781C25.7237 12.351 23.9208 13.6891 22.9082 13.6891C21.895 13.6891 20.3444 12.5421 18.6673 12.573C16.4843 12.6053 14.4588 13.8473 13.3511 15.8226C11.0727 19.7741 12.7498 25.6356 14.9655 28.854C16.0414 30.4462 17.3382 32.1993 19.0468 32.1363C20.6612 32.0726 21.294 31.0844 23.2563 31.0844C25.2172 31.0844 25.7872 32.1363 27.4961 32.1045C29.2683 32.0726 30.3762 30.5115 31.4522 28.9177C32.6865 27.1027 33.1918 25.3501 33.2236 25.2539C33.1918 25.222 29.8063 23.9152 29.7749 19.9964C29.743 16.7153 32.4329 15.1545 32.5595 15.0578C31.0405 12.797 28.667 12.5421 27.8442 12.4781Z" fill="#000008"/>
<path d="M46.3072 8.03752C50.9159 8.03752 54.1251 11.2342 54.1251 15.8884C54.1251 20.5591 50.8499 23.7724 46.1916 23.7724H41.0889V31.938H37.4022V8.03752L46.3072 8.03752ZM41.0889 20.6585H45.3192C48.529 20.6585 50.3559 18.9196 50.3559 15.905C50.3559 12.8907 48.529 11.1681 45.3357 11.1681H41.0889V20.6585Z" fill="#000008"/>
<path d="M55.0883 26.9857C55.0883 23.9379 57.4092 22.0664 61.5246 21.8344L66.2647 21.553V20.2115C66.2647 18.2735 64.9643 17.1142 62.792 17.1142C60.734 17.1142 59.4501 18.1077 59.1377 19.6649H55.7798C55.9773 16.5177 58.6436 14.1989 62.9234 14.1989C67.1207 14.1989 69.8035 16.4349 69.8035 19.9297V31.9379H66.3962V29.0725H66.3143C65.3104 31.0105 63.1209 32.236 60.8496 32.236C57.4588 32.236 55.0883 30.116 55.0883 26.9857ZM66.2647 25.4123V24.0376L62.0014 24.3024C59.8781 24.4516 58.6767 25.3957 58.6767 26.8864C58.6767 28.4099 59.9276 29.4038 61.837 29.4038C64.3223 29.4038 66.2647 27.6812 66.2647 25.4123Z" fill="#000008"/>
<path d="M73.0204 38.3479V35.4493C73.2832 35.5155 73.8757 35.5155 74.1722 35.5155C75.8181 35.5155 76.7071 34.8199 77.25 33.0312C77.25 32.998 77.563 31.9712 77.563 31.9546L71.3084 14.5136H75.1596L79.5385 28.6917H79.6039L83.9828 14.5136H87.7355L81.2498 32.8488C79.769 37.0726 78.0571 38.4307 74.4688 38.4307C74.1722 38.4307 73.2832 38.3975 73.0204 38.3479Z" fill="#000008"/>
</svg>
