<svg aria-hidden="true" style="position:absolute;width:0;height:0" width="24" height="24"
  xmlns="http://www.w3.org/2000/svg" overflow="hidden">
  <defs>
    <symbol id="close" viewBox="0 0 24 24">
      <path
        d="M19.546 17.954a1.127 1.127 0 1 1-1.594 1.594L12 13.594l-5.954 5.952a1.127 1.127 0 1 1-1.594-1.594L10.406 12 4.454 6.046a1.127 1.127 0 0 1 1.594-1.594L12 10.406l5.954-5.955a1.127 1.127 0 0 1 1.594 1.594L13.594 12l5.952 5.954Z"
        fill="currentcolor" />
    </symbol>
    <symbol id="magnifier" viewBox="0 0 24 24">
      <path
        d="m21.796 20.204-4.452-4.454a8.636 8.636 0 1 0-1.594 1.594l4.456 4.457a1.126 1.126 0 1 0 1.594-1.594l-.004-.003ZM4.125 10.5a6.375 6.375 0 1 1 6.375 6.375A6.381 6.381 0 0 1 4.125 10.5Z"
        fill="currentcolor" />
    </symbol>
    <symbol id="cart" viewBox="0 0 24 24">
      <path
        d="M9.375 20.25a1.875 1.875 0 1 1-3.75 0 1.875 1.875 0 0 1 3.75 0Zm7.875-1.875a1.875 1.875 0 1 0 0 3.75 1.875 1.875 0 0 0 0-3.75Zm4.825-11.294-2.558 8.316a2.614 2.614 0 0 1-2.51 1.853H7.775a2.637 2.637 0 0 1-2.525-1.904L2.045 4.125h-.92a1.125 1.125 0 0 1 0-2.25h1.202a1.882 1.882 0 0 1 1.803 1.36l.683 2.39H21a1.125 1.125 0 0 1 1.075 1.456Zm-2.598.794H5.455l1.959 6.853a.375.375 0 0 0 .36.272h9.233a.375.375 0 0 0 .36-.264l2.11-6.861Z"
        fill="currentcolor" />
    </symbol>
    <symbol id="account" viewBox="0 0 24 24">
      <path
        d="M12 1.875A10.125 10.125 0 1 0 22.125 12 10.137 10.137 0 0 0 12 1.875ZM7.46 18.428a5.625 5.625 0 0 1 9.08 0 7.848 7.848 0 0 1-9.08 0Zm1.915-7.178a2.625 2.625 0 1 1 5.25 0 2.625 2.625 0 0 1-5.25 0Zm8.813 5.62a7.826 7.826 0 0 0-2.72-2.196 4.876 4.876 0 1 0-6.937 0 7.826 7.826 0 0 0-2.719 2.195 7.875 7.875 0 1 1 12.366 0h.01Z"
        fill="currentcolor" />
    </symbol>
    <symbol id="burger" viewBox="0 0 24 24">
      <path
        d="M21.375 12a1.125 1.125 0 0 1-1.125 1.125H3.75a1.125 1.125 0 1 1 0-2.25h16.5A1.125 1.125 0 0 1 21.375 12ZM3.75 7.125h16.5a1.125 1.125 0 0 0 0-2.25H3.75a1.125 1.125 0 0 0 0 2.25Zm16.5 9.75H3.75a1.125 1.125 0 1 0 0 2.25h16.5a1.125 1.125 0 1 0 0-2.25Z"
        fill="currentcolor" />
    </symbol>
    <symbol id="star" viewBox="0 0 24 24">
      <path
        d="m12 0 3.575 8.094L24 9.167l-6.216 6.076L19.417 24 12 19.662 4.584 24l1.632-8.757L0 9.167l8.425-1.073L12 0Z"
        fill="currentcolor" />
    </symbol>
    <symbol id="arrow-prev" viewBox="0 0 24 24">
      <path
        d="M9.70406 4.4541L2.95406 11.2041C2.84918 11.3086 2.76597 11.4328 2.70919 11.5696C2.6524 11.7063 2.62317 11.8529 2.62317 12.001C2.62317 12.149 2.6524 12.2957 2.70919 12.4324C2.76597 12.5691 2.84918 12.6933 2.95406 12.7979L9.70406 19.5479C9.91541 19.7592 10.2021 19.8779 10.5009 19.8779C10.7998 19.8779 11.0865 19.7592 11.2978 19.5479C11.5092 19.3365 11.6279 19.0499 11.6279 18.751C11.6279 18.4521 11.5092 18.1654 11.2978 17.9541L6.46875 13.125L20.25 13.125C20.5484 13.125 20.8345 13.0065 21.0455 12.7955C21.2565 12.5846 21.375 12.2984 21.375 12C21.375 11.7017 21.2565 11.4155 21.0455 11.2045C20.8345 10.9936 20.5484 10.875 20.25 10.875L6.46875 10.875L11.2987 6.04598C11.5101 5.83463 11.6288 5.54799 11.6288 5.2491C11.6288 4.95022 11.5101 4.66357 11.2987 4.45223C11.0874 4.24088 10.8008 4.12215 10.5019 4.12215C10.203 4.12215 9.91634 4.24088 9.705 4.45223L9.70406 4.4541Z"
        fill="currentcolor" />
    </symbol>
    <symbol id="arrow-next" viewBox="0 0 24 24">
      <path
        d="M14.2959 4.4541L21.0459 11.2041C21.1508 11.3086 21.234 11.4328 21.2908 11.5696C21.3476 11.7063 21.3768 11.8529 21.3768 12.001C21.3768 12.149 21.3476 12.2957 21.2908 12.4324C21.234 12.5691 21.1508 12.6933 21.0459 12.7979L14.2959 19.5479C14.0846 19.7592 13.7979 19.8779 13.4991 19.8779C13.2002 19.8779 12.9135 19.7592 12.7022 19.5479C12.4908 19.3365 12.3721 19.0499 12.3721 18.751C12.3721 18.4521 12.4908 18.1654 12.7022 17.9541L17.5313 13.125L3.75 13.125C3.45163 13.125 3.16548 13.0065 2.9545 12.7955C2.74353 12.5846 2.625 12.2984 2.625 12C2.625 11.7017 2.74353 11.4155 2.95451 11.2045C3.16548 10.9936 3.45163 10.875 3.75 10.875L17.5313 10.875L12.7013 6.04598C12.4899 5.83463 12.3712 5.54799 12.3712 5.2491C12.3712 4.95022 12.4899 4.66357 12.7013 4.45223C12.9126 4.24088 13.1992 4.12215 13.4981 4.12215C13.797 4.12215 14.0837 4.24088 14.295 4.45223L14.2959 4.4541Z"
        fill="currentcolor" />
    </symbol>
    <symbol id="checkmark" viewBox="0 0 24 24">
      <path
        d="M12 2.8291C10.0716 2.8291 8.18657 3.40093 6.58319 4.47227C4.97982 5.54362 3.73013 7.06636 2.99218 8.84794C2.25422 10.6295 2.06114 12.5899 2.43735 14.4812C2.81355 16.3725 3.74215 18.1098 5.10571 19.4734C6.46928 20.837 8.20656 21.7656 10.0979 22.1418C11.9892 22.518 13.9496 22.3249 15.7312 21.5869C17.5127 20.849 19.0355 19.5993 20.1068 17.9959C21.1782 16.3925 21.75 14.5075 21.75 12.5791C21.7473 9.99408 20.7192 7.51571 18.8913 5.68783C17.0634 3.85994 14.585 2.83183 12 2.8291ZM16.2806 10.8597L11.0306 16.1097C10.961 16.1795 10.8783 16.2348 10.7872 16.2725C10.6962 16.3103 10.5986 16.3297 10.5 16.3297C10.4014 16.3297 10.3038 16.3103 10.2128 16.2725C10.1218 16.2348 10.039 16.1795 9.96938 16.1097L7.71938 13.8597C7.57865 13.719 7.49959 13.5281 7.49959 13.3291C7.49959 13.1301 7.57865 12.9392 7.71938 12.7985C7.86011 12.6577 8.05098 12.5787 8.25 12.5787C8.44903 12.5787 8.6399 12.6577 8.78063 12.7985L10.5 14.5188L15.2194 9.79848C15.2891 9.72879 15.3718 9.67352 15.4628 9.63581C15.5539 9.59809 15.6515 9.57868 15.75 9.57868C15.8486 9.57868 15.9461 9.59809 16.0372 9.63581C16.1282 9.67352 16.2109 9.72879 16.2806 9.79848C16.3503 9.86816 16.4056 9.95088 16.4433 10.0419C16.481 10.133 16.5004 10.2306 16.5004 10.3291C16.5004 10.4276 16.481 10.5252 16.4433 10.6163C16.4056 10.7073 16.3503 10.79 16.2806 10.8597Z"
        fill="currentcolor" />
    </symbol>
    <symbol id="letter" viewBox="0 0 24 24">
      <path
        d="M21 4.125H3C2.70163 4.125 2.41548 4.24353 2.2045 4.4545C1.99353 4.66548 1.875 4.95163 1.875 5.25V18C1.875 18.4973 2.07254 18.9742 2.42417 19.3258C2.77581 19.6775 3.25272 19.875 3.75 19.875H20.25C20.7473 19.875 21.2242 19.6775 21.5758 19.3258C21.9275 18.9742 22.125 18.4973 22.125 18V5.25C22.125 4.95163 22.0065 4.66548 21.7955 4.4545C21.5845 4.24353 21.2984 4.125 21 4.125ZM12 11.9738L5.89219 6.375H18.1078L12 11.9738ZM8.69906 12L4.125 16.1925V7.8075L8.69906 12ZM10.3641 13.5262L11.2397 14.3297C11.4472 14.52 11.7185 14.6255 12 14.6255C12.2815 14.6255 12.5528 14.52 12.7603 14.3297L13.6359 13.5262L18.1078 17.625H5.89219L10.3641 13.5262ZM15.3009 12L19.875 7.8075V16.1925L15.3009 12Z"
        fill="currentColor" />
    </symbol>
    <symbol id="github-logo" viewBox="0 0 24 24">
      <path fill-rule="evenodd" clip-rule="evenodd"
        d="M12 0C5.35 0 0 5.35 0 12c0 5.3 3.45 9.8 8.2 11.4.6.1.8-.25.8-.6v-2.05c-3.35.75-4.05-1.6-4.05-1.6-.55-1.4-1.35-1.75-1.35-1.75-1.1-.75.1-.75.1-.75 1.2.1 1.85 1.25 1.85 1.25 1.05 1.85 2.8 1.3 3.5 1 .1-.8.4-1.3.75-1.6-2.65-.3-5.45-1.35-5.45-5.95 0-1.3.45-2.4 1.25-3.2-.1-.3-.55-1.5.1-3.2 0 0 1-.3 3.3 1.25.95-.25 2-.4 3-.4s2.05.15 3 .4c2.3-1.55 3.3-1.25 3.3-1.25.65 1.65.25 2.85.1 3.2.75.85 1.25 1.9 1.25 3.2 0 4.6-2.8 5.6-5.5 5.9.45.35.8 1.1.8 2.2v3.3c0 .3.2.7.85.6A11.94 11.94 0 0 0 24 12c0-6.65-5.35-12-12-12Z"
        fill="currentcolor" />
    </symbol>
    <symbol id="twitter-logo" viewBox="0 0 24 24">
      <path
        d="M24 4.25c-.9.4-1.85.65-2.85.8 1-.6 1.8-1.55 2.15-2.7-.95.55-2 .95-3.15 1.2-.9-.95-2.2-1.55-3.6-1.55-2.7 0-4.9 2.2-4.9 4.9 0 .4.05.75.15 1.1-4.05-.2-7.7-2.15-10.15-5.15C1.25 3.6 1 4.4 1 5.3c0 1.7.85 3.2 2.2 4.1-.8-.05-1.55-.25-2.25-.6v.05c0 2.4 1.7 4.4 3.95 4.85-.4.1-.85.15-1.3.15-.3 0-.65-.05-.95-.1.65 1.95 2.45 3.4 4.6 3.4-1.7 1.3-3.8 2.1-6.1 2.1-.4 0-.8 0-1.15-.05 2.2 1.4 4.75 2.2 7.55 2.2 9.05 0 14-7.5 14-14v-.65c.95-.65 1.8-1.5 2.45-2.5Z"
        fill="currentcolor" />
    </symbol>
    <symbol id="forward-right" viewBox="0 0 24 24">
      <path
        d="M9.79586 3.70406L17.2959 11.2041C17.4007 11.3086 17.484 11.4328 17.5407 11.5695C17.5975 11.7063 17.6267 11.8529 17.6267 12.0009C17.6267 12.149 17.5975 12.2956 17.5407 12.4324C17.484 12.5691 17.4007 12.6933 17.2959 12.7978L9.79586 20.2978C9.58451 20.5092 9.29787 20.6279 8.99898 20.6279C8.7001 20.6279 8.41345 20.5092 8.20211 20.2978C7.99076 20.0865 7.87203 19.7998 7.87203 19.5009C7.87203 19.202 7.99076 18.9154 8.20211 18.7041L14.9062 12L8.20117 5.29593C7.98983 5.08459 7.87109 4.79794 7.87109 4.49906C7.87109 4.20017 7.98983 3.91353 8.20117 3.70218C8.41252 3.49084 8.69916 3.3721 8.99805 3.3721C9.29693 3.3721 9.58358 3.49084 9.79492 3.70218L9.79586 3.70406Z"
        fill="currentcolor" />
    </symbol>
    <symbol id="forward-bottom" viewBox="0 0 24 24">
      <path
        d="M20.2959 9.79593L12.7959 17.2959C12.6914 17.4008 12.5672 17.484 12.4304 17.5408C12.2937 17.5976 12.1471 17.6268 11.999 17.6268C11.851 17.6268 11.7043 17.5976 11.5676 17.5408C11.4309 17.484 11.3067 17.4008 11.2021 17.2959L3.70215 9.79593C3.4908 9.58459 3.37207 9.29794 3.37207 8.99906C3.37207 8.70017 3.4908 8.41353 3.70215 8.20218C3.91349 7.99084 4.20014 7.87211 4.49902 7.87211C4.79791 7.87211 5.08455 7.99084 5.2959 8.20218L12 14.9062L18.704 8.20125C18.9154 7.9899 19.202 7.87117 19.5009 7.87117C19.7998 7.87117 20.0864 7.9899 20.2978 8.20125C20.5091 8.41259 20.6278 8.69924 20.6278 8.99812C20.6278 9.29701 20.5091 9.58365 20.2978 9.795L20.2959 9.79593Z"
        fill="currentcolor" />
    </symbol>
    <symbol id="plus" viewBox="0 0 24 24">
      <path
        d="M21.375 12C21.375 12.2984 21.2565 12.5845 21.0455 12.7955C20.8345 13.0065 20.5484 13.125 20.25 13.125H13.125V20.25C13.125 20.5484 13.0065 20.8345 12.7955 21.0455C12.5845 21.2565 12.2984 21.375 12 21.375C11.7016 21.375 11.4155 21.2565 11.2045 21.0455C10.9935 20.8345 10.875 20.5484 10.875 20.25V13.125H3.75C3.45163 13.125 3.16548 13.0065 2.9545 12.7955C2.74353 12.5845 2.625 12.2984 2.625 12C2.625 11.7016 2.74353 11.4155 2.9545 11.2045C3.16548 10.9935 3.45163 10.875 3.75 10.875H10.875V3.75C10.875 3.45163 10.9935 3.16548 11.2045 2.9545C11.4155 2.74353 11.7016 2.625 12 2.625C12.2984 2.625 12.5845 2.74353 12.7955 2.9545C13.0065 3.16548 13.125 3.45163 13.125 3.75V10.875H20.25C20.5484 10.875 20.8345 10.9935 21.0455 11.2045C21.2565 11.4155 21.375 11.7016 21.375 12Z"
        fill="currentcolor" />
    </symbol>
    <symbol id="minus" viewBox="0 0 24 24">
      <path
        d="M21.375 12C21.375 12.2984 21.2565 12.5845 21.0455 12.7955C20.8345 13.0065 20.5484 13.125 20.25 13.125H3.75C3.45163 13.125 3.16548 13.0065 2.9545 12.7955C2.74353 12.5845 2.625 12.2984 2.625 12C2.625 11.7016 2.74353 11.4155 2.9545 11.2045C3.16548 10.9935 3.45163 10.875 3.75 10.875H20.25C20.5484 10.875 20.8345 10.9935 21.0455 11.2045C21.2565 11.4155 21.375 11.7016 21.375 12Z"
        fill="currentcolor" />
    </symbol>
    <symbol id="accept" viewBox="0 0 24 24">
      <path
        d="M21.7959 7.54594L9.7959 19.5459C9.69138 19.6508 9.56719 19.734 9.43044 19.7908C9.2937 19.8476 9.14709 19.8768 8.99902 19.8768C8.85096 19.8768 8.70435 19.8476 8.5676 19.7908C8.43086 19.734 8.30666 19.6508 8.20215 19.5459L2.95215 14.2959C2.8475 14.1913 2.76449 14.0671 2.70785 13.9303C2.65122 13.7936 2.62207 13.6471 2.62207 13.4991C2.62207 13.3511 2.65122 13.2045 2.70785 13.0678C2.76449 12.9311 2.8475 12.8068 2.95215 12.7022C3.05679 12.5975 3.18103 12.5145 3.31776 12.4579C3.45448 12.4013 3.60103 12.3721 3.74902 12.3721C3.89702 12.3721 4.04356 12.4013 4.18029 12.4579C4.31702 12.5145 4.44125 12.5975 4.5459 12.7022L8.99996 17.1563L20.204 5.95407C20.4154 5.74272 20.702 5.62399 21.0009 5.62399C21.2998 5.62399 21.5864 5.74272 21.7978 5.95407C22.0091 6.16541 22.1278 6.45206 22.1278 6.75094C22.1278 7.04983 22.0091 7.33648 21.7978 7.54782L21.7959 7.54594Z"
        fill="currentcolor" />
    </symbol>
    <symbol id="filter" viewBox="0 0 24 24">
      <path
        d="M13.125 12.125V20.75C13.125 21.0484 13.0065 21.3345 12.7955 21.5455C12.5845 21.7565 12.2984 21.875 12 21.875C11.7016 21.875 11.4155 21.7565 11.2045 21.5455C10.9935 21.3345 10.875 21.0484 10.875 20.75V12.125C10.875 11.8266 10.9935 11.5405 11.2045 11.3295C11.4155 11.1185 11.7016 11 12 11C12.2984 11 12.5845 11.1185 12.7955 11.3295C13.0065 11.5405 13.125 11.8266 13.125 12.125ZM18.75 18.5C18.4516 18.5 18.1655 18.6185 17.9545 18.8295C17.7435 19.0405 17.625 19.3266 17.625 19.625V20.75C17.625 21.0484 17.7435 21.3345 17.9545 21.5455C18.1655 21.7565 18.4516 21.875 18.75 21.875C19.0484 21.875 19.3345 21.7565 19.5455 21.5455C19.7565 21.3345 19.875 21.0484 19.875 20.75V19.625C19.875 19.3266 19.7565 19.0405 19.5455 18.8295C19.3345 18.6185 19.0484 18.5 18.75 18.5ZM21 14.75H19.875V4.25C19.875 3.95163 19.7565 3.66548 19.5455 3.4545C19.3345 3.24353 19.0484 3.125 18.75 3.125C18.4516 3.125 18.1655 3.24353 17.9545 3.4545C17.7435 3.66548 17.625 3.95163 17.625 4.25V14.75H16.5C16.2016 14.75 15.9155 14.8685 15.7045 15.0795C15.4935 15.2905 15.375 15.5766 15.375 15.875C15.375 16.1734 15.4935 16.4595 15.7045 16.6705C15.9155 16.8815 16.2016 17 16.5 17H21C21.2984 17 21.5845 16.8815 21.7955 16.6705C22.0065 16.4595 22.125 16.1734 22.125 15.875C22.125 15.5766 22.0065 15.2905 21.7955 15.0795C21.5845 14.8685 21.2984 14.75 21 14.75ZM5.25 15.5C4.95163 15.5 4.66548 15.6185 4.4545 15.8295C4.24353 16.0405 4.125 16.3266 4.125 16.625V20.75C4.125 21.0484 4.24353 21.3345 4.4545 21.5455C4.66548 21.7565 4.95163 21.875 5.25 21.875C5.54837 21.875 5.83452 21.7565 6.0455 21.5455C6.25647 21.3345 6.375 21.0484 6.375 20.75V16.625C6.375 16.3266 6.25647 16.0405 6.0455 15.8295C5.83452 15.6185 5.54837 15.5 5.25 15.5ZM7.5 11.75H6.375V4.25C6.375 3.95163 6.25647 3.66548 6.0455 3.4545C5.83452 3.24353 5.54837 3.125 5.25 3.125C4.95163 3.125 4.66548 3.24353 4.4545 3.4545C4.24353 3.66548 4.125 3.95163 4.125 4.25V11.75H3C2.70163 11.75 2.41548 11.8685 2.2045 12.0795C1.99353 12.2905 1.875 12.5766 1.875 12.875C1.875 13.1734 1.99353 13.4595 2.2045 13.6705C2.41548 13.8815 2.70163 14 3 14H7.5C7.79837 14 8.08452 13.8815 8.2955 13.6705C8.50647 13.4595 8.625 13.1734 8.625 12.875C8.625 12.5766 8.50647 12.2905 8.2955 12.0795C8.08452 11.8685 7.79837 11.75 7.5 11.75ZM14.25 7.25H13.125V4.25C13.125 3.95163 13.0065 3.66548 12.7955 3.4545C12.5845 3.24353 12.2984 3.125 12 3.125C11.7016 3.125 11.4155 3.24353 11.2045 3.4545C10.9935 3.66548 10.875 3.95163 10.875 4.25V7.25H9.75C9.45163 7.25 9.16548 7.36853 8.9545 7.5795C8.74353 7.79048 8.625 8.07663 8.625 8.375C8.625 8.67337 8.74353 8.95952 8.9545 9.1705C9.16548 9.38147 9.45163 9.5 9.75 9.5H14.25C14.5484 9.5 14.8345 9.38147 15.0455 9.1705C15.2565 8.95952 15.375 8.67337 15.375 8.375C15.375 8.07663 15.2565 7.79048 15.0455 7.5795C14.8345 7.36853 14.5484 7.25 14.25 7.25Z"
        fill="currentcolor" />
    </symbol>
    <symbol id="delete" viewBox="0 0 24 24">
      <path
        d="M20.25 4.5H16.5V3.75C16.5 3.15326 16.2629 2.58097 15.841 2.15901C15.419 1.73705 14.8467 1.5 14.25 1.5H9.75C9.15326 1.5 8.58097 1.73705 8.15901 2.15901C7.73705 2.58097 7.5 3.15326 7.5 3.75V4.5H3.75C3.55109 4.5 3.36032 4.57902 3.21967 4.71967C3.07902 4.86032 3 5.05109 3 5.25C3 5.44891 3.07902 5.63968 3.21967 5.78033C3.36032 5.92098 3.55109 6 3.75 6H4.5V19.5C4.5 19.8978 4.65804 20.2794 4.93934 20.5607C5.22064 20.842 5.60218 21 6 21H18C18.3978 21 18.7794 20.842 19.0607 20.5607C19.342 20.2794 19.5 19.8978 19.5 19.5V6H20.25C20.4489 6 20.6397 5.92098 20.7803 5.78033C20.921 5.63968 21 5.44891 21 5.25C21 5.05109 20.921 4.86032 20.7803 4.71967C20.6397 4.57902 20.4489 4.5 20.25 4.5ZM10.5 15.75C10.5 15.9489 10.421 16.1397 10.2803 16.2803C10.1397 16.421 9.94891 16.5 9.75 16.5C9.55109 16.5 9.36032 16.421 9.21967 16.2803C9.07902 16.1397 9 15.9489 9 15.75V9.75C9 9.55109 9.07902 9.36032 9.21967 9.21967C9.36032 9.07902 9.55109 9 9.75 9C9.94891 9 10.1397 9.07902 10.2803 9.21967C10.421 9.36032 10.5 9.55109 10.5 9.75V15.75ZM15 15.75C15 15.9489 14.921 16.1397 14.7803 16.2803C14.6397 16.421 14.4489 16.5 14.25 16.5C14.0511 16.5 13.8603 16.421 13.7197 16.2803C13.579 16.1397 13.5 15.9489 13.5 15.75V9.75C13.5 9.55109 13.579 9.36032 13.7197 9.21967C13.8603 9.07902 14.0511 9 14.25 9C14.4489 9 14.6397 9.07902 14.7803 9.21967C14.921 9.36032 15 9.55109 15 9.75V15.75ZM15 4.5H9V3.75C9 3.55109 9.07902 3.36032 9.21967 3.21967C9.36032 3.07902 9.55109 3 9.75 3H14.25C14.4489 3 14.6397 3.07902 14.7803 3.21967C14.921 3.36032 15 3.55109 15 3.75V4.5Z"
        fill="currentcolor" />
    </symbol>
    <symbol id="label" viewBox="0 0 24 24">
      <path
        d="M23.0766 12.4857L13.7653 3.17444C13.5917 2.9997 13.3851 2.86115 13.1576 2.76685C12.93 2.67254 12.686 2.62435 12.4397 2.62507H3.75001C3.45164 2.62507 3.16549 2.7436 2.95451 2.95457C2.74353 3.16555 2.62501 3.4517 2.62501 3.75007V12.4398C2.62429 12.6861 2.67248 12.9301 2.76679 13.1576C2.86109 13.3852 2.99963 13.5918 3.17438 13.7654L12.4856 23.0766C12.8372 23.4281 13.3141 23.6256 13.8113 23.6256C14.3084 23.6256 14.7853 23.4281 15.1369 23.0766L23.0766 15.1369C23.4281 14.7853 23.6255 14.3085 23.6255 13.8113C23.6255 13.3141 23.4281 12.8373 23.0766 12.4857ZM13.8113 21.2204L4.87501 12.2813V4.87507H12.2813L21.2175 13.8113L13.8113 21.2204ZM9.37501 7.87507C9.37501 8.17174 9.28703 8.46175 9.12221 8.70842C8.95739 8.9551 8.72312 9.14736 8.44903 9.26089C8.17494 9.37442 7.87334 9.40412 7.58237 9.34625C7.2914 9.28837 7.02413 9.14551 6.81435 8.93573C6.60457 8.72595 6.46171 8.45868 6.40383 8.1677C6.34595 7.87673 6.37566 7.57513 6.48919 7.30104C6.60272 7.02695 6.79498 6.79269 7.04165 6.62786C7.28833 6.46304 7.57834 6.37507 7.87501 6.37507C8.27283 6.37507 8.65436 6.5331 8.93567 6.81441C9.21697 7.09571 9.37501 7.47724 9.37501 7.87507Z"
        fill="currentcolor" />
    </symbol>
  </defs>
</svg>