<svg xmlns="http://www.w3.org/2000/svg" version="1.1" xmlns:xlink="http://www.w3.org/1999/xlink" width="1000" height="1000"><svg width="1000" height="1000" viewBox="0 0 1000 1000" fill="none" xmlns="http://www.w3.org/2000/svg">
<path d="M477.576 831.03C420.687 831.03 365.737 824.566 312.727 811.636C259.717 798.707 216.081 781.899 181.818 761.212L255.515 594.424C287.838 613.172 323.717 628.364 363.151 640C403.232 650.99 442.02 656.485 479.515 656.485C501.495 656.485 518.626 655.192 530.909 652.606C543.838 649.374 553.212 645.172 559.03 640C564.848 634.182 567.758 627.394 567.758 619.636C567.758 607.354 560.97 597.657 547.394 590.546C533.818 583.434 515.717 577.616 493.091 573.091C471.111 567.919 446.869 562.748 420.364 557.576C393.859 551.758 367.03 544.323 339.879 535.273C313.374 526.222 288.808 514.263 266.182 499.394C244.202 484.525 226.424 465.131 212.848 441.212C199.273 416.647 192.485 386.263 192.485 350.061C192.485 308.04 204.121 269.899 227.394 235.636C251.313 200.727 286.545 172.929 333.091 152.242C380.283 131.556 438.788 121.212 508.606 121.212C554.505 121.212 599.758 126.061 644.364 135.758C688.97 145.455 729.05 160.323 764.606 180.364L695.758 346.182C662.141 329.374 629.495 316.768 597.818 308.364C566.788 299.96 536.404 295.758 506.667 295.758C484.687 295.758 467.232 297.697 454.303 301.576C441.374 305.455 432 310.626 426.182 317.091C421.01 323.556 418.424 330.667 418.424 338.424C418.424 350.061 425.212 359.434 438.788 366.545C452.364 373.01 470.141 378.505 492.121 383.03C514.747 387.556 539.313 392.404 565.818 397.576C592.97 402.748 619.798 409.859 646.303 418.909C672.808 427.96 697.05 439.919 719.03 454.788C741.657 469.657 759.758 489.051 773.333 512.97C786.909 536.889 793.697 566.626 793.697 602.182C793.697 643.556 781.737 681.697 757.818 716.606C734.545 750.869 699.636 778.667 653.091 800C606.545 820.687 548.04 831.03 477.576 831.03Z" fill="black"></path>
</svg><style>@media (prefers-color-scheme: light) { :root { filter: none; } }
@media (prefers-color-scheme: dark) { :root { filter: none; } }
</style></svg>