<svg width="100" height="45" viewBox="0 0 100 45" fill="none" xmlns="http://www.w3.org/2000/svg">
<path d="M47.2855 31.1662H44.29V7.71123H52.2313C54.244 7.71123 55.9602 8.38631 57.3643 9.73646C58.7997 11.0866 59.5174 12.7351 59.5174 14.6818C59.5174 16.6756 58.7997 18.3241 57.3643 19.6585C55.9758 20.993 54.2596 21.6523 52.2313 21.6523H47.2855V31.1662ZM47.2855 10.5999V18.7793H52.2937C53.4795 18.7793 54.478 18.3712 55.2581 17.5705C56.0538 16.7698 56.4594 15.7964 56.4594 14.6975C56.4594 13.6142 56.0538 12.6566 55.2581 11.8559C54.478 11.0238 53.4951 10.6156 52.2937 10.6156H47.2855V10.5999Z" fill="#3C4043"/>
<path d="M67.3492 14.5876C69.5647 14.5876 71.3121 15.1842 72.5914 16.3773C73.8708 17.5705 74.5105 19.2032 74.5105 21.2756V31.1662H71.6553V28.9369H71.5305C70.298 30.7737 68.6442 31.6843 66.5847 31.6843C64.8217 31.6843 63.3551 31.1662 62.1694 30.1143C60.9837 29.0625 60.3908 27.7594 60.3908 26.1895C60.3908 24.5253 61.0149 23.2066 62.263 22.2332C63.5112 21.2442 65.1806 20.7575 67.2556 20.7575C69.0342 20.7575 70.5008 21.0872 71.6397 21.7465V21.0558C71.6397 20.0039 71.2341 19.1247 70.4072 18.3869C69.5803 17.649 68.613 17.2879 67.5052 17.2879C65.8358 17.2879 64.5097 17.9944 63.5424 19.423L60.9057 17.7589C62.3566 15.6394 64.5097 14.5876 67.3492 14.5876ZM63.48 26.2366C63.48 27.0215 63.8076 27.6809 64.4785 28.199C65.1338 28.7171 65.9139 28.984 66.8032 28.984C68.0669 28.984 69.1902 28.513 70.1732 27.571C71.1561 26.6291 71.6553 25.5301 71.6553 24.2584C70.7192 23.5206 69.4243 23.1438 67.7549 23.1438C66.5379 23.1438 65.5238 23.4421 64.7125 24.023C63.8856 24.6352 63.48 25.3731 63.48 26.2366Z" fill="#3C4043"/>
<path d="M90.799 15.1058L80.8138 38.2154H77.7246L81.4379 30.1302L74.8539 15.1058H78.1147L82.8576 26.6292H82.92L87.5382 15.1058H90.799Z" fill="#3C4043"/>
<path d="M35.3702 19.7527C35.3702 18.7699 35.2828 17.8295 35.1206 16.9252H22.5642V22.1061L29.7957 22.1076C29.5023 23.8314 28.5584 25.3009 27.1121 26.2805V29.6418H31.4167C33.9302 27.301 35.3702 23.8409 35.3702 19.7527Z" fill="#4285F4"/>
<path d="M27.1137 26.2807C25.9154 27.0939 24.3724 27.5696 22.5673 27.5696C19.0803 27.5696 16.1222 25.2053 15.0628 22.0183H10.6225V25.4847C12.8224 29.8774 17.3438 32.8917 22.5673 32.8917C26.1776 32.8917 29.2106 31.697 31.4182 29.6404L27.1137 26.2807Z" fill="#34A853"/>
<path d="M14.6445 19.4465C14.6445 18.5517 14.7927 17.6866 15.0627 16.8734V13.407H10.6224C9.71279 15.2234 9.20105 17.2737 9.20105 19.4465C9.20105 21.6193 9.71435 23.6697 10.6224 25.4861L15.0627 22.0197C14.7927 21.2065 14.6445 20.3414 14.6445 19.4465Z" fill="#FABB05"/>
<path d="M22.5673 11.3221C24.5378 11.3221 26.3024 12.005 27.6956 13.3395L31.5103 9.50412C29.1934 7.33288 26.1729 6 22.5673 6C17.3453 6 12.8222 9.01427 10.6224 13.407L15.0627 16.8734C16.122 13.6864 19.0803 11.3221 22.5673 11.3221Z" fill="#E94235"/>
</svg>
