<svg width="100" height="46" viewBox="0 0 100 46" fill="none" xmlns="http://www.w3.org/2000/svg">
<path d="M59.8052 5.72177H40.1958V41.1806H59.8052V5.72177Z" fill="#FF5F00"/>
<path d="M41.441 23.4512C41.4379 20.0362 42.2069 16.6653 43.6899 13.5937C45.1728 10.522 47.3309 7.83012 50.0005 5.72176C46.6945 3.10689 42.7241 1.48075 38.543 1.02918C34.3619 0.577622 30.1389 1.31885 26.3567 3.16817C22.5745 5.0175 19.3857 7.9003 17.1547 11.4871C14.9237 15.0738 13.7407 19.2198 13.7407 23.4512C13.7407 27.6825 14.9237 31.8285 17.1547 35.4153C19.3857 39.002 22.5745 41.8848 26.3567 43.7342C30.1389 45.5835 34.3619 46.3247 38.543 45.8732C42.7241 45.4216 46.6945 43.7954 50.0005 41.1806C47.3309 39.0722 45.1729 36.3803 43.6899 33.3086C42.207 30.237 41.4379 26.8661 41.441 23.4512Z" fill="#EB001B"/>
<path d="M86.2593 23.4512C86.2595 27.6825 85.0765 31.8285 82.8457 35.4152C80.6148 39.002 77.4261 41.8848 73.644 43.7341C69.8618 45.5835 65.6389 46.3247 61.4579 45.8732C57.2769 45.4216 53.3065 43.7955 50.0005 41.1806C52.6679 39.0701 54.8242 36.3778 56.3069 33.3066C57.7897 30.2354 58.5601 26.8656 58.5601 23.4512C58.5601 20.0368 57.7897 16.6669 56.3069 13.5958C54.8242 10.5246 52.6679 7.83225 50.0005 5.72176C53.3065 3.10689 57.2769 1.48074 61.4579 1.02918C65.6389 0.577622 69.8618 1.31888 73.644 3.16822C77.4261 5.01757 80.6148 7.90037 82.8457 11.4871C85.0765 15.0739 86.2595 19.2199 86.2593 23.4512Z" fill="#F79E1B"/>
<path d="M84.1212 37.425V36.699H84.4121V36.5511H83.6713V36.699H83.9623V37.425H84.1212ZM85.5596 37.425V36.5497H85.3325L85.0713 37.1517L84.81 36.5497H84.5828V37.425H84.7431V36.7647L84.9881 37.3339H85.1544L85.3993 36.7633V37.425H85.5596Z" fill="#F79E1B"/>
</svg>
