<svg width="100" height="45" viewBox="0 0 100 45" fill="none" xmlns="http://www.w3.org/2000/svg">
<path fill-rule="evenodd" clip-rule="evenodd" d="M12.4858 9.43347H4.80722C4.28177 9.43347 3.83488 9.8177 3.75294 10.3394L0.647337 30.1503C0.585611 30.5413 0.886504 30.8937 1.28061 30.8937H4.94642C5.47188 30.8937 5.91877 30.5094 6.0007 29.9867L6.83832 24.6434C6.91912 24.1201 7.3671 23.7364 7.89147 23.7364H10.3222C15.3804 23.7364 18.2994 21.2737 19.0621 16.3936C19.4056 14.2586 19.0767 12.5811 18.0827 11.4059C16.9916 10.1162 15.0556 9.43347 12.4858 9.43347ZM13.3717 16.6691C12.9518 19.4414 10.8466 19.4414 8.81102 19.4414H7.6523L8.46519 14.2639C8.51346 13.9512 8.78291 13.7207 9.09731 13.7207H9.62838C11.015 13.7207 12.3231 13.7207 12.9991 14.5158C13.4018 14.9905 13.5255 15.6952 13.3717 16.6691ZM35.4389 16.5803H31.7618C31.4485 16.5803 31.1778 16.8108 31.1294 17.1239L30.9668 18.1585L30.7096 17.7837C29.9136 16.621 28.1387 16.2326 26.367 16.2326C22.3033 16.2326 18.833 19.329 18.157 23.6727C17.8058 25.839 18.3051 27.9108 19.5266 29.3557C20.6474 30.684 22.2508 31.2377 24.1582 31.2377C27.4321 31.2377 29.248 29.1194 29.248 29.1194L29.0838 30.1477C29.022 30.5408 29.3229 30.8932 29.7146 30.8932H33.027C33.5538 30.8932 33.9981 30.5089 34.0812 29.9861L36.0686 17.3236C36.1315 16.9342 35.8317 16.5803 35.4389 16.5803ZM30.3132 23.7809C29.9583 25.8944 28.291 27.3132 26.1648 27.3132C25.0971 27.3132 24.2434 26.9687 23.6958 26.3158C23.1523 25.6676 22.9455 24.7443 23.1185 23.7166C23.45 21.6208 25.1454 20.156 27.2393 20.156C28.2832 20.156 29.1322 20.5047 29.6912 21.1634C30.2514 21.8288 30.4737 22.7573 30.3132 23.7809ZM51.3272 16.5797H55.0225C55.54 16.5797 55.8419 17.1637 55.5478 17.5908L43.2581 35.4391C43.0591 35.7282 42.7312 35.9002 42.381 35.9002H38.6904C38.1708 35.9002 37.8674 35.3116 38.1682 34.8835L41.995 29.4487L37.9251 17.4313C37.7843 17.0136 38.0908 16.5797 38.5325 16.5797H42.1633C42.6351 16.5797 43.0513 16.8913 43.1874 17.3456L45.3473 24.6037L50.4439 17.0507C50.6434 16.7559 50.9749 16.5797 51.3272 16.5797Z" fill="#253B80"/>
<path fill-rule="evenodd" clip-rule="evenodd" d="M91.3916 30.1485L94.5429 9.97539C94.5912 9.66225 94.8609 9.43171 95.1742 9.43066H98.7219C99.1137 9.43066 99.4145 9.78405 99.3527 10.1751L96.2451 29.9849C96.164 30.5077 95.7172 30.8919 95.1908 30.8919H92.0224C91.6307 30.8919 91.3298 30.5396 91.3916 30.1485ZM67.2575 9.4317H59.5776C59.0533 9.4317 58.6065 9.81594 58.5244 10.3377L55.4189 30.1485C55.357 30.5396 55.6579 30.8919 56.0501 30.8919H59.9907C60.357 30.8919 60.6703 30.6232 60.7274 30.2573L61.6086 24.6417C61.6897 24.1184 62.1376 23.7347 62.6618 23.7347H65.0914C70.1506 23.7347 73.0691 21.2719 73.8323 16.3919C74.1768 14.2569 73.8459 12.5793 72.8524 11.4041C71.7618 10.1144 69.8274 9.4317 67.2575 9.4317ZM68.1434 16.6674C67.7246 19.4396 65.6193 19.4396 63.5825 19.4396H62.4249L63.2391 14.2621C63.2874 13.9495 63.5545 13.7189 63.8699 13.7189H64.4009C65.7866 13.7189 67.0959 13.7189 67.7714 14.5141C68.1746 14.9887 68.2972 15.6934 68.1434 16.6674ZM90.2086 16.5785H86.5341C86.2182 16.5785 85.95 16.809 85.9028 17.1222L85.7402 18.1567L85.4819 17.7819C84.6859 16.6193 82.9121 16.2308 81.1403 16.2308C77.0766 16.2308 73.6074 19.3272 72.9314 23.6709C72.5812 25.8373 73.0784 27.909 74.3 29.3539C75.4228 30.6823 77.0241 31.2359 78.9315 31.2359C82.2054 31.2359 84.0208 29.1176 84.0208 29.1176L83.8572 30.1459C83.7953 30.539 84.0962 30.8914 84.4905 30.8914H87.8013C88.3256 30.8914 88.7724 30.5071 88.8545 29.9844L90.843 17.3219C90.9038 16.9324 90.6029 16.5785 90.2086 16.5785ZM85.0834 23.7791C84.7306 25.8927 83.0612 27.3115 80.9345 27.3115C79.8689 27.3115 79.0136 26.967 78.4655 26.314C77.922 25.6658 77.7178 24.7426 77.8887 23.7148C78.2218 21.619 79.9151 20.1542 82.009 20.1542C83.0534 20.1542 83.9019 20.5029 84.4615 21.1616C85.0236 21.8271 85.246 22.7555 85.0834 23.7791Z" fill="#179BD7"/>
</svg>
