<svg width="100" height="45" viewBox="0 0 100 45" fill="none" xmlns="http://www.w3.org/2000/svg">
<path d="M49.5487 7.53651L43.3366 36.7567H35.8249L42.0379 7.53651H49.5487ZM81.1535 26.4041L85.1084 15.4309L87.384 26.4041H81.1535ZM89.5347 36.7567H96.483L90.4198 7.53651H84.0064C82.5652 7.53651 81.3493 8.37996 80.8079 9.68028L69.538 36.7567H77.4266L78.9927 32.3933H88.6303L89.5347 36.7567ZM69.9296 27.2161C69.9617 19.5039 59.3306 19.0794 59.4041 15.6344C59.4262 14.5847 60.4197 13.4712 62.5897 13.1854C63.6678 13.0439 66.6319 12.9357 69.9976 14.4941L71.3156 8.29765C69.5077 7.63732 67.1815 7.00195 64.2882 7.00195C56.8638 7.00195 51.6378 10.9741 51.5937 16.6619C51.5468 20.868 55.3243 23.2153 58.1707 24.6136C61.0971 26.0462 62.0805 26.9636 62.0677 28.2445C62.0484 30.2061 59.7332 31.0699 57.5733 31.1041C53.7958 31.1642 51.6038 30.0785 49.8566 29.2591L48.4954 35.6617C50.25 36.4728 53.4898 37.1775 56.8509 37.2136C64.7413 37.2136 69.9038 33.2904 69.9296 27.2161ZM38.8147 7.53651L26.6441 36.7567H18.7022L12.7134 13.437C12.3494 12.0007 12.0333 11.4754 10.9276 10.8696C9.12342 9.88467 6.14097 8.95891 3.51697 8.38551L3.69619 7.53651H16.478C18.1066 7.53651 19.5726 8.62782 19.942 10.5154L23.1056 27.4251L30.9224 7.53651H38.8147Z" fill="#1434CB"/>
</svg>
