<svg width="156" height="24" viewBox="0 0 156 24" fill="none" xmlns="http://www.w3.org/2000/svg">
<path d="M9.76 23.712C7.88267 23.712 6.06933 23.4987 4.32 23.072C2.57067 22.6453 1.13067 22.0907 0 21.408L2.432 15.904C3.49867 16.5227 4.68267 17.024 5.984 17.408C7.30667 17.7707 8.58667 17.952 9.824 17.952C10.5493 17.952 11.1147 17.9093 11.52 17.824C11.9467 17.7173 12.256 17.5787 12.448 17.408C12.64 17.216 12.736 16.992 12.736 16.736C12.736 16.3307 12.512 16.0107 12.064 15.776C11.616 15.5413 11.0187 15.3493 10.272 15.2C9.54667 15.0293 8.74667 14.8587 7.872 14.688C6.99733 14.496 6.112 14.2507 5.216 13.952C4.34133 13.6533 3.53067 13.2587 2.784 12.768C2.05867 12.2773 1.472 11.6373 1.024 10.848C0.576 10.0373 0.352 9.03467 0.352 7.84C0.352 6.45334 0.736 5.19467 1.504 4.064C2.29333 2.912 3.456 1.99467 4.992 1.312C6.54933 0.629335 8.48 0.288002 10.784 0.288002C12.2987 0.288002 13.792 0.448002 15.264 0.768002C16.736 1.088 18.0587 1.57867 19.232 2.24L16.96 7.712C15.8507 7.15733 14.7733 6.74133 13.728 6.464C12.704 6.18667 11.7013 6.048 10.72 6.048C9.99467 6.048 9.41867 6.112 8.992 6.24C8.56533 6.368 8.256 6.53867 8.064 6.752C7.89333 6.96534 7.808 7.2 7.808 7.456C7.808 7.84 8.032 8.14933 8.48 8.384C8.928 8.59734 9.51467 8.77867 10.24 8.928C10.9867 9.07734 11.7973 9.23734 12.672 9.408C13.568 9.57867 14.4533 9.81334 15.328 10.112C16.2027 10.4107 17.0027 10.8053 17.728 11.296C18.4747 11.7867 19.072 12.4267 19.52 13.216C19.968 14.0053 20.192 14.9867 20.192 16.16C20.192 17.5253 19.7973 18.784 19.008 19.936C18.24 21.0667 17.088 21.984 15.552 22.688C14.016 23.3707 12.0853 23.712 9.76 23.712Z" fill="black"/>
<path d="M36.9673 0.800001H44.5193V23.2H36.9673V0.800001ZM29.9913 23.2H22.4393V0.800001H29.9913V23.2ZM37.4793 14.944H29.4792V8.736H37.4793V14.944Z" fill="black"/>
<path d="M59.902 23.712C58.0887 23.712 56.4033 23.424 54.846 22.848C53.31 22.272 51.9767 21.4613 50.846 20.416C49.7153 19.3493 48.83 18.1013 48.19 16.672C47.5713 15.2427 47.262 13.6853 47.262 12C47.262 10.2933 47.5713 8.736 48.19 7.328C48.83 5.89867 49.7153 4.66133 50.846 3.616C51.9767 2.54933 53.31 1.728 54.846 1.152C56.4033 0.576002 58.0887 0.288002 59.902 0.288002C61.7367 0.288002 63.422 0.576002 64.958 1.152C66.494 1.728 67.8273 2.54933 68.958 3.616C70.0887 4.66133 70.9633 5.89867 71.582 7.328C72.222 8.736 72.542 10.2933 72.542 12C72.542 13.6853 72.222 15.2427 71.582 16.672C70.9633 18.1013 70.0887 19.3493 68.958 20.416C67.8273 21.4613 66.494 22.272 64.958 22.848C63.422 23.424 61.7367 23.712 59.902 23.712ZM59.902 17.6C60.606 17.6 61.2567 17.472 61.854 17.216C62.4727 16.96 63.006 16.5973 63.454 16.128C63.9233 15.6373 64.286 15.0507 64.542 14.368C64.798 13.664 64.926 12.8747 64.926 12C64.926 11.1253 64.798 10.3467 64.542 9.664C64.286 8.96 63.9233 8.37334 63.454 7.904C63.006 7.41333 62.4727 7.04 61.854 6.784C61.2567 6.528 60.606 6.4 59.902 6.4C59.198 6.4 58.5367 6.528 57.918 6.784C57.3207 7.04 56.7873 7.41333 56.318 7.904C55.87 8.37334 55.518 8.96 55.262 9.664C55.006 10.3467 54.878 11.1253 54.878 12C54.878 12.8747 55.006 13.664 55.262 14.368C55.518 15.0507 55.87 15.6373 56.318 16.128C56.7873 16.5973 57.3207 16.96 57.918 17.216C58.5367 17.472 59.198 17.6 59.902 17.6Z" fill="black"/>
<path d="M75.283 23.2V0.800001H86.067C88.1577 0.800001 89.9603 1.14133 91.475 1.824C93.011 2.50667 94.195 3.488 95.027 4.768C95.859 6.02667 96.275 7.52 96.275 9.248C96.275 10.976 95.859 12.4693 95.027 13.728C94.195 14.9867 93.011 15.968 91.475 16.672C89.9603 17.3547 88.1577 17.696 86.067 17.696H79.475L82.835 14.464V23.2H75.283ZM82.835 15.296L79.475 11.872H85.587C86.6323 11.872 87.4003 11.6373 87.891 11.168C88.403 10.6987 88.659 10.0587 88.659 9.248C88.659 8.43734 88.403 7.79733 87.891 7.328C87.4003 6.85867 86.6323 6.624 85.587 6.624H79.475L82.835 3.2V15.296Z" fill="black"/>
<path d="M101.292 23.52C100.097 23.52 99.0944 23.136 98.2838 22.368C97.4731 21.5787 97.0677 20.576 97.0677 19.36C97.0677 18.1227 97.4731 17.1307 98.2838 16.384C99.0944 15.6373 100.097 15.264 101.292 15.264C102.486 15.264 103.489 15.6373 104.3 16.384C105.11 17.1307 105.516 18.1227 105.516 19.36C105.516 20.576 105.11 21.5787 104.3 22.368C103.489 23.136 102.486 23.52 101.292 23.52Z" fill="black"/>
<path d="M118.93 23.712C117.138 23.712 115.473 23.4347 113.938 22.88C112.423 22.304 111.1 21.4933 109.969 20.448C108.86 19.4027 107.996 18.1653 107.378 16.736C106.759 15.3067 106.45 13.728 106.45 12C106.45 10.272 106.759 8.69334 107.378 7.264C107.996 5.83467 108.86 4.59734 109.969 3.552C111.1 2.50667 112.423 1.70667 113.938 1.152C115.473 0.576002 117.138 0.288002 118.93 0.288002C121.127 0.288002 123.068 0.672002 124.754 1.44C126.46 2.208 127.868 3.31733 128.978 4.768L124.21 9.024C123.548 8.192 122.812 7.552 122.002 7.104C121.212 6.63467 120.316 6.4 119.313 6.4C118.524 6.4 117.81 6.528 117.17 6.784C116.53 7.04 115.975 7.41333 115.506 7.904C115.058 8.39467 114.706 8.992 114.45 9.696C114.194 10.3787 114.065 11.1467 114.065 12C114.065 12.8533 114.194 13.632 114.45 14.336C114.706 15.0187 115.058 15.6053 115.506 16.096C115.975 16.5867 116.53 16.96 117.17 17.216C117.81 17.472 118.524 17.6 119.313 17.6C120.316 17.6 121.212 17.376 122.002 16.928C122.812 16.4587 123.548 15.808 124.21 14.976L128.978 19.232C127.868 20.6613 126.46 21.7707 124.754 22.56C123.068 23.328 121.127 23.712 118.93 23.712Z" fill="black"/>
<path d="M142.433 23.712C140.62 23.712 138.935 23.424 137.377 22.848C135.841 22.272 134.508 21.4613 133.377 20.416C132.247 19.3493 131.361 18.1013 130.721 16.672C130.103 15.2427 129.793 13.6853 129.793 12C129.793 10.2933 130.103 8.736 130.721 7.328C131.361 5.89867 132.247 4.66133 133.377 3.616C134.508 2.54933 135.841 1.728 137.377 1.152C138.935 0.576002 140.62 0.288002 142.433 0.288002C144.268 0.288002 145.953 0.576002 147.489 1.152C149.025 1.728 150.359 2.54933 151.489 3.616C152.62 4.66133 153.495 5.89867 154.113 7.328C154.753 8.736 155.073 10.2933 155.073 12C155.073 13.6853 154.753 15.2427 154.113 16.672C153.495 18.1013 152.62 19.3493 151.489 20.416C150.359 21.4613 149.025 22.272 147.489 22.848C145.953 23.424 144.268 23.712 142.433 23.712ZM142.433 17.6C143.137 17.6 143.788 17.472 144.385 17.216C145.004 16.96 145.537 16.5973 145.985 16.128C146.455 15.6373 146.817 15.0507 147.073 14.368C147.329 13.664 147.457 12.8747 147.457 12C147.457 11.1253 147.329 10.3467 147.073 9.664C146.817 8.96 146.455 8.37334 145.985 7.904C145.537 7.41333 145.004 7.04 144.385 6.784C143.788 6.528 143.137 6.4 142.433 6.4C141.729 6.4 141.068 6.528 140.449 6.784C139.852 7.04 139.319 7.41333 138.849 7.904C138.401 8.37334 138.049 8.96 137.793 9.664C137.537 10.3467 137.409 11.1253 137.409 12C137.409 12.8747 137.537 13.664 137.793 14.368C138.049 15.0507 138.401 15.6373 138.849 16.128C139.319 16.5973 139.852 16.96 140.449 17.216C141.068 17.472 141.729 17.6 142.433 17.6Z" fill="black"/>
</svg>
